<?xml version="1.0" standalone="no"?>
<!DOCTYPE svg PUBLIC "-//W3C//DTD SVG 20010904//EN"
 "http://www.w3.org/TR/2001/REC-SVG-20010904/DTD/svg10.dtd">
<svg version="1.0" xmlns="http://www.w3.org/2000/svg"
 width="260.000000pt" height="260.000000pt" viewBox="0 0 260.000000 260.000000"
 preserveAspectRatio="xMidYMid meet">
<metadata>
Created by potrace 1.11, written by Peter Selinger 2001-2013
</metadata>
<g transform="translate(0.000000,260.000000) scale(0.100000,-0.100000)"
fill="#000000" stroke="none">
<path d="M1811 1888 c-5 -13 -122 -270 -260 -573 -138 -302 -251 -553 -251
-557 0 -4 44 -8 98 -8 l98 0 55 133 55 132 228 0 227 0 56 -132 56 -133 99 0
c86 0 99 2 96 16 -2 9 -118 269 -258 580 -262 579 -275 603 -299 542z m103
-521 c42 -99 76 -183 76 -188 0 -5 -69 -9 -155 -9 -100 0 -155 4 -155 10 0 13
151 372 155 368 1 -2 37 -83 79 -181z"/>
<path d="M372 1328 l3 -573 97 -3 98 -3 2 274 3 274 233 -273 233 -274 121 0
c111 0 119 1 107 17 -8 9 -125 142 -262 297 -136 154 -246 284 -245 288 2 3
107 120 233 259 127 139 236 261 243 271 12 17 7 18 -102 18 l-115 0 -223
-255 -223 -255 -3 255 -2 255 -100 0 -100 0 2 -572z"/>
</g>
</svg>
